<svg xmlns="http://www.w3.org/2000/svg" xmlns:xlink="http://www.w3.org/1999/xlink" width="1920" height="1080" viewBox="0 0 1920 1080">
  <defs>
    <style>
      .cls-1 {
        fill: #fff;
        stroke: #707070;
      }

      .cls-2 {
        clip-path: url(#clip-path);
      }

      .cls-3 {
        fill: #6b25e3;
      }

      .cls-4 {
        filter: url(#路径_3585);
      }

      .cls-5 {
        filter: url(#路径_826);
      }

      .cls-6 {
        filter: url(#路径_916);
      }

      .cls-7 {
        filter: url(#路径_915);
      }

      .cls-8 {
        filter: url(#路径_914);
      }

      .cls-9 {
        filter: url(#路径_1004);
      }
    </style>
    <clipPath id="clip-path">
      <rect id="矩形_2316" data-name="矩形 2316" class="cls-1" width="1920" height="1080"/>
    </clipPath>
    <filter id="路径_1004" x="-709.09" y="-532.978" width="3667.415" height="1990.4" filterUnits="userSpaceOnUse">
      <feOffset dx="1" dy="19" input="SourceAlpha"/>
      <feGaussianBlur stdDeviation="11" result="blur"/>
      <feFlood flood-color="#4400b8" flood-opacity="0.239"/>
      <feComposite operator="in" in2="blur"/>
      <feComposite in="SourceGraphic"/>
    </filter>
    <filter id="路径_914" x="-777.971" y="-774.838" width="1776.585" height="1949.458" filterUnits="userSpaceOnUse">
      <feOffset dx="30" dy="32" input="SourceAlpha"/>
      <feGaussianBlur stdDeviation="11" result="blur-2"/>
      <feFlood flood-color="#4400b8" flood-opacity="0.471"/>
      <feComposite operator="in" in2="blur-2"/>
      <feComposite in="SourceGraphic"/>
    </filter>
    <filter id="路径_915" x="-796.168" y="-775.235" width="1605.615" height="1761.274" filterUnits="userSpaceOnUse">
      <feOffset dx="30" dy="32" input="SourceAlpha"/>
      <feGaussianBlur stdDeviation="11" result="blur-3"/>
      <feFlood flood-color="#4400b8" flood-opacity="0.471"/>
      <feComposite operator="in" in2="blur-3"/>
      <feComposite in="SourceGraphic"/>
    </filter>
    <filter id="路径_916" x="-1304.596" y="-691.547" width="1676.586" height="1330.601" filterUnits="userSpaceOnUse">
      <feOffset dx="30" dy="32" input="SourceAlpha"/>
      <feGaussianBlur stdDeviation="11" result="blur-4"/>
      <feFlood flood-color="#4400b8" flood-opacity="0.471"/>
      <feComposite operator="in" in2="blur-4"/>
      <feComposite in="SourceGraphic"/>
    </filter>
    <filter id="路径_826" x="1214.079" y="-194.308" width="1211.68" height="1005.103" filterUnits="userSpaceOnUse">
      <feOffset dx="-38" dy="25" input="SourceAlpha"/>
      <feGaussianBlur stdDeviation="11" result="blur-5"/>
      <feFlood flood-color="#4400b8" flood-opacity="0.471"/>
      <feComposite operator="in" in2="blur-5"/>
      <feComposite in="SourceGraphic"/>
    </filter>
    <filter id="路径_3585" x="1394.07" y="-984.303" width="1441.254" height="1766.114" filterUnits="userSpaceOnUse">
      <feOffset dx="-29" dy="33" input="SourceAlpha"/>
      <feGaussianBlur stdDeviation="23" result="blur-6"/>
      <feFlood flood-color="#4400b8" flood-opacity="0.471"/>
      <feComposite operator="in" in2="blur-6"/>
      <feComposite in="SourceGraphic"/>
    </filter>
  </defs>
  <g id="login_bg_1" class="cls-2">
    <g id="组_3220" data-name="组 3220">
      <g class="cls-9" transform="matrix(1, 0, 0, 1, 0, 0)">
        <path id="路径_1004-2" data-name="路径 1004" class="cls-3" d="M2849.735,1176.237c509.021-516.52,263.459-312.479,263.459-312.479,4.385-58.507-165-340.771-139.441-393.6C3017.8,379.139,2395.367,70.435,2467.365-.579c117.973-116.378-157.745,99.931-246.34-40.083-39.085-61.2-317.617-154.6-431.266-154.6C1434.43-201.586,1099,100.332,742.256,103.385c-106.092.908-233.97-11.552-260.7,40.318s-43.848,108.186-69.126,160.757C360.695,411.791,213.458,323.618,140.1,417.435c-40.45,51.695-544.651,21.458-567.364,83.009-36.108,97.825,499.593,473.569,556.025,561.3,24.379,37.917,57.572,70.751,74.168,112.655,23.173,58.594,10.238,124.22,4.713,186.976s.526,134.406,48.868,174.863c26.682,22.321,33.72,72.236,68.162,77.274,153.525-23.912,311.7,76.527,543.216-52.321s310.049-30.822,508.61-84.4,314.156,87.583,551.773,196.275S2702.083,1786.623,2849.735,1176.237Z" transform="translate(-248.08 -323.62)"/>
      </g>
      <g class="cls-8" transform="matrix(1, 0, 0, 1, 0, 0)">
        <path id="路径_914-2" data-name="路径 914" class="cls-3" d="M263.113,971.1C143.024,933.374,23.652,622.141,14.527,606.546,7.819,595.07,89.162,609.917,74.788,444.28c-2.948-34.058,66.089,48.555,48.9,17.8-29.617-52.981,8.751-64.427-39.662-105.766C4.7,288.565-29.356,174.366,30.217,92.86,56.5,57.233,97.1,31.283,144.188,20.013c27.627-6.5,56.492-7.651,85.092-8.76Q588.62-2.225,948.447.44c28.482.217,57.745.638,84.03,10,36.31,12.917,62.4,41.352,80.374,71.547s29.484,62.978,46.482,93.581c34.791,62.481,364.766-59.442,414.093-4.829,27.2,30.093-186.684,203.549-205.433,270.665s20.035,123.929-17.912,175c-16.393,22.072-38.713,41.186-49.873,65.579-15.583,34.109,162.746,211.482,166.461,248.014s-174.3-19.86-240.113-9.393-237.966,146.892-461.576,103.21C643.3,991.567,627.154,875.157,528.735,867.6,318.613,851.452,383.2,1008.83,263.113,971.1Z" transform="matrix(0.53, -0.85, 0.85, 0.53, -774.97, 562.53)"/>
      </g>
      <g class="cls-7" transform="matrix(1, 0, 0, 1, 0, 0)">
        <path id="路径_915-2" data-name="路径 915" class="cls-3" d="M244.6,684.569c-16.136-7.265-83.943,6.517-92.157-7.52-6.038-10.33-7.139-22.175-8.134-33.7L132.368,505.779c-2.654-30.657-5.56-62.163-21.033-89.848-26.659-47.69,7.877-57.993-35.7-95.2C4.229,259.747-26.424,156.952,27.2,83.587,50.856,51.518,87.4,28.159,129.789,18.014c24.868-5.854,50.85-6.887,76.594-7.885Q529.836-2,853.726.4c25.637.2,51.978.574,75.638,9,32.684,11.627,56.171,37.222,72.347,64.4s26.54,56.689,41.84,84.235c31.317,56.241,328.337-53.506,372.738-4.346,24.483,27.087-168.04,183.221-184.917,243.634s-40.874,54.159-56.127,108.3,78.788,51.136,56.315,100.328c-18.4,40.284-67.4,73.016-64.055,105.9s-36.253,104.034-87.966,110.576c-99.8,12.625-189.678,138.463-390.957,99.143C579.05,892.541,619.088,810.214,506.838,777.768S365.96,822.168,244.6,684.569Z" transform="matrix(0.53, -0.85, 0.85, 0.53, -793.17, 428.67)"/>
      </g>
      <g class="cls-6" transform="matrix(1, 0, 0, 1, 0, 0)">
        <path id="路径_916-2" data-name="路径 916" class="cls-3" d="M192.959,707.5c-16.136-7.265-32.3-16.413-40.513-30.45-6.038-10.33-7.139-22.175-8.134-33.7L132.368,505.779c-2.654-30.657-5.56-62.163-21.033-89.848-26.659-47.69,7.877-57.993-35.7-95.2C4.229,259.747-26.424,156.952,27.2,83.587,50.856,51.518,87.4,28.159,129.789,18.014c24.868-5.854,50.85-6.887,76.594-7.885Q529.836-2,853.726.4c25.637.2,51.978.574,75.638,9,32.684,11.627,56.171,37.222,72.347,64.4s26.54,56.689,41.84,84.235c31.317,56.241,328.337-53.506,372.738-4.346,24.483,27.088-168.04,183.221-184.917,243.634s-40.874,54.159-56.127,108.3,78.788,51.136,56.315,100.328c-18.4,40.284-67.4,73.016-64.055,105.9s-36.253,104.034-87.966,110.576c-99.8,12.625-189.678,138.463-390.957,99.143C579.05,892.541,560.168,763.507,471.578,756.7,282.44,742.17,264.722,739.81,192.959,707.5Z" transform="matrix(-0.97, 0.26, -0.26, -0.97, 308.99, 206.94)"/>
      </g>
      <g class="cls-5" transform="matrix(1, 0, 0, 1, 0, 0)">
        <path id="路径_826-2" data-name="路径 826" class="cls-3" d="M975.415,757.731c14.961-7.781,29.947-17.578,37.563-32.612,5.6-11.063,6.619-23.749,7.542-36.091l11.073-147.339c2.461-32.834,5.155-66.577,19.5-96.227,24.718-51.076-7.3-62.11,33.1-101.963,66.205-65.311,74.066-141.06,24.347-219.634-21.934-34.346-69.947-61.538-133.726-61.538-199.408-3.55-402.756-7.63-602.959-5.917-59.538.509-131.3-6.483-146.3,22.626s-24.607,60.713-38.793,90.216c-29.036,60.234-76.282,109.331-117.449,161.98-22.7,29.011-43.948,59.754-56.695,94.3C-7.643,480.427-4.1,545,27.57,594.232c13.682,21.279,32.309,39.705,41.623,63.221,13,32.883,5.746,69.711,2.645,104.93s.3,75.428,27.425,98.132c14.973,12.526,34.807,17.468,54.135,20.3,92.535,13.522,175.865,148.293,362.486,106.182,101.556-31.082,119.064-169.277,201.2-176.566C892.449,794.862,908.878,792.335,975.415,757.731Z" transform="translate(1285.08 -242.31)"/>
      </g>
      <g class="cls-4" transform="matrix(1, 0, 0, 1, 0, 0)">
        <path id="路径_3585-2" data-name="路径 3585" class="cls-3" d="M192.959,707.5c-16.136-7.265-32.3-16.413-40.513-30.45-6.038-10.33-7.139-22.175-8.134-33.7L132.368,505.779c-2.654-30.657-5.56-62.163-21.033-89.848-26.659-47.69,7.877-57.993-35.7-95.2C4.229,259.747-26.424,156.952,27.2,83.587,50.856,51.518,87.4,28.159,129.789,18.014c24.868-5.854,50.85-6.887,76.594-7.885Q529.836-2,853.726.4c25.637.2,51.978.574,75.638,9,32.684,11.627,56.171,37.222,72.347,64.4s26.54,56.689,41.84,84.235c31.317,56.241,328.337-53.506,372.738-4.346,24.483,27.088-168.04,183.221-184.917,243.634s-40.874,54.159-56.127,108.3,78.788,51.136,56.315,100.328c-18.4,40.284-67.4,73.016-64.055,105.9s-36.253,104.034-87.966,110.576c-99.8,12.625-189.678,138.463-390.957,99.143C579.05,892.541,560.168,763.507,471.578,756.7,282.44,742.17,264.722,739.81,192.959,707.5Z" transform="translate(1492.07 408.16) rotate(-73)"/>
      </g>
    </g>
  </g>
</svg>
